<svg xmlns="http://www.w3.org/2000/svg" width="200" height="200" viewBox="0 0 200 200" fill="none">
  <path d="M140 50H60C55.5817 50 52 53.5817 52 58V142C52 146.418 55.5817 150 60 150H140C144.418 150 148 146.418 148 142V58C148 53.5817 144.418 50 140 50Z" fill="#E9EFF6" stroke="#3A86FF" stroke-width="3"/>
  <path d="M83 73H117" stroke="#3A86FF" stroke-width="3" stroke-linecap="round"/>
  <path d="M70 88H130" stroke="#3A86FF" stroke-width="3" stroke-linecap="round"/>
  <path d="M70 103H130" stroke="#3A86FF" stroke-width="3" stroke-linecap="round"/>
  <path d="M70 118H110" stroke="#3A86FF" stroke-width="3" stroke-linecap="round"/>
  
  <g>
    <circle cx="155" cy="130" r="12" fill="#FF006E" opacity="0.7">
      <animate attributeName="opacity" values="0.7;0.2;0.7" dur="2s" repeatCount="indefinite" />
    </circle>
    <path d="M155 124V130L159 134" stroke="white" stroke-width="2" stroke-linecap="round" stroke-linejoin="round">
      <animateTransform attributeName="transform" type="rotate" from="0 155 130" to="360 155 130" dur="10s" repeatCount="indefinite" />
    </path>
  </g>
  
  <g>
    <circle cx="45" cy="70" r="12" fill="#3A86FF" opacity="0.7">
      <animate attributeName="opacity" values="0.7;0.3;0.7" dur="3s" repeatCount="indefinite" />
    </circle>
    <path d="M41 70H49" stroke="white" stroke-width="2" stroke-linecap="round"/>
    <path d="M45 66V74" stroke="white" stroke-width="2" stroke-linecap="round"/>
  </g>
  
  <g>
    <path d="M110 40C110 40 115 25 130 25C145 25 150 40 150 40" stroke="#3A86FF" stroke-width="2" stroke-linecap="round">
      <animate attributeName="d" values="M110 40C110 40 115 25 130 25C145 25 150 40 150 40;M110 40C110 40 120 30 130 30C140 30 150 40 150 40;M110 40C110 40 115 25 130 25C145 25 150 40 150 40" dur="3s" repeatCount="indefinite" />
    </path>
    <path d="M50 40C50 40 55 25 70 25C85 25 90 40 90 40" stroke="#3A86FF" stroke-width="2" stroke-linecap="round">
      <animate attributeName="d" values="M50 40C50 40 55 25 70 25C85 25 90 40 90 40;M50 40C50 40 60 30 70 30C80 30 90 40 90 40;M50 40C50 40 55 25 70 25C85 25 90 40 90 40" dur="4s" repeatCount="indefinite" />
    </path>
  </g>
  
  <g>
    <circle cx="130" cy="170" r="8" fill="#3A86FF" opacity="0.5">
      <animate attributeName="r" values="8;10;8" dur="2s" repeatCount="indefinite" />
      <animate attributeName="opacity" values="0.5;0.8;0.5" dur="2s" repeatCount="indefinite" />
    </circle>
    <circle cx="155" cy="170" r="5" fill="#3A86FF" opacity="0.5">
      <animate attributeName="r" values="5;7;5" dur="2s" repeatCount="indefinite" />
      <animate attributeName="opacity" values="0.5;0.8;0.5" dur="2s" repeatCount="indefinite" />
    </circle>
    <circle cx="170" cy="155" r="3" fill="#3A86FF" opacity="0.5">
      <animate attributeName="r" values="3;5;3" dur="2s" repeatCount="indefinite" />
      <animate attributeName="opacity" values="0.5;0.8;0.5" dur="2s" repeatCount="indefinite" />
    </circle>
  </g>
  
  <g>
    <path d="M40 160L65 160" stroke="#FF006E" stroke-width="2" stroke-linecap="round">
      <animate attributeName="d" values="M40 160L65 160;M38 160L67 160;M40 160L65 160" dur="3s" repeatCount="indefinite" />
    </path>
    <path d="M45 155L60 165" stroke="#FF006E" stroke-width="2" stroke-linecap="round">
      <animate attributeName="d" values="M45 155L60 165;M43 155L62 165;M45 155L60 165" dur="3s" repeatCount="indefinite" />
    </path>
    <path d="M45 165L60 155" stroke="#FF006E" stroke-width="2" stroke-linecap="round">
      <animate attributeName="d" values="M45 165L60 155;M43 165L62 155;M45 165L60 155" dur="3s" repeatCount="indefinite" />
    </path>
  </g>
</svg> 